<?xml version="1.0" encoding="UTF-8"?>
<svg width="1280px" height="720px" viewBox="0 0 1280 720" version="1.1" xmlns="http://www.w3.org/2000/svg" xmlns:xlink="http://www.w3.org/1999/xlink">
    <!-- Generator: Sketch 46.2 (44496) - http://www.bohemiancoding.com/sketch -->
    <title>pwm</title>
    <desc>Created with Sketch.</desc>
    <defs></defs>
    <g id="Page-1" stroke="none" stroke-width="1" fill="none" fill-rule="evenodd">
        <g id="pwm">
            <polygon id="Path-2" fill="#50E3C2" transform="translate(478.245486, 194.660137) scale(-1, 1) translate(-478.245486, -194.660137) " points="0 299.320274 0 279.320274 111.83206 279.320274 111.83206 90 158.563585 90 158.563585 278.607759 271.759448 279.668709 271.759448 90.3484353 318.490973 90.3484353 318.490973 278.956194 430.759448 279.668709 430.759448 90.3484353 477.490973 90.3484353 477.490973 278.956194 590.759448 279.668709 590.759448 90.3484353 637.490973 90.3484353 637.490973 278.956194 749.759448 279.668709 749.759448 90.3484353 796.490973 90.3484353 796.490973 278.956194 909.759448 279.668709 909.759448 90.3484353 956.490973 90.3484353 956.490973 298.956194"></polygon>
            <polygon id="Path-2" fill="#50E3C2" transform="translate(477.781793, 525.660137) scale(-1, 1) translate(-477.781793, -525.660137) " points="0 630.320274 0 610.320274 41.8320605 610.320274 41.8320605 421 158.563585 421 158.563585 609.607759 200.83206 610.320274 200.83206 421 317.563585 421 317.563585 609.607759 360.83206 610.320274 360.83206 421 477.563585 421 477.563585 609.607759 519.83206 610.320274 519.83206 421 636.563585 421 636.563585 609.607759 679.83206 610.320274 679.83206 421 796.563585 421 796.563585 609.607759 838.83206 610.320274 838.83206 421 955.563585 421 955.563585 629.607759"></polygon>
            <circle id="Oval-2" fill="#FFFFFF" opacity="0.273267663" cx="1117.5" cy="182.5" r="73.5"></circle>
            <circle id="Oval-2" fill="#FFFFFF" cx="1117.5" cy="525.5" r="73.5"></circle>
        </g>
    </g>
</svg>