<?xml version="1.0" encoding="UTF-8"?>
<svg width="1280px" height="720px" viewBox="0 0 1280 720" version="1.1" xmlns="http://www.w3.org/2000/svg" xmlns:xlink="http://www.w3.org/1999/xlink">
    <!-- Generator: Sketch 46.2 (44496) - http://www.bohemiancoding.com/sketch -->
    <title>ws2811</title>
    <desc>Created with Sketch.</desc>
    <defs>
        <text id="text-1" font-family="AvenirNext-HeavyItalic, Avenir Next" font-size="98" font-style="italic" font-weight="600" fill="#FFFFFF">
            <tspan x="423.381" y="193">WS2811</tspan>
        </text>
        <filter x="-0.8%" y="-2.6%" width="101.8%" height="105.2%" filterUnits="objectBoundingBox" id="filter-2">
            <feOffset dx="3" dy="-2" in="SourceAlpha" result="shadowOffsetOuter1"></feOffset>
            <feColorMatrix values="0 0 0 0 0.739875019   0 0 0 0 0.0611469224   0 0 0 0 0.879000783  0 0 0 1 0" type="matrix" in="shadowOffsetOuter1" result="shadowMatrixOuter1"></feColorMatrix>
            <feOffset dx="-2" dy="2" in="SourceAlpha" result="shadowOffsetOuter2"></feOffset>
            <feColorMatrix values="0 0 0 0 0.314369351   0 0 0 0 0.8883757   0 0 0 0 0.759899616  0 0 0 1 0" type="matrix" in="shadowOffsetOuter2" result="shadowMatrixOuter2"></feColorMatrix>
            <feMerge>
                <feMergeNode in="shadowMatrixOuter1"></feMergeNode>
                <feMergeNode in="shadowMatrixOuter2"></feMergeNode>
            </feMerge>
        </filter>
    </defs>
    <g id="Page-1" stroke="none" stroke-width="1" fill="none" fill-rule="evenodd">
        <g id="ws2811" fill="#FFFFFF">
            <g transform="translate(395.000000, 360.000000)">
                <path d="M181.5,11.5 L181.5,266.5 L346.5,266.5 L346.5,11.5 L181.5,11.5 Z M351.5,6.5 L351.5,271.5 L176.5,271.5 L176.5,6.5 L351.5,6.5 Z" id="Rectangle" fill-rule="nonzero"></path>
                <path d="M351.5,202.5 L351.5,237.5 L362.5,237.5 L362.5,202.5 L351.5,202.5 Z M367.5,197.5 L367.5,242.5 L346.5,242.5 L346.5,197.5 L367.5,197.5 Z" id="Rectangle" fill-rule="nonzero"></path>
                <path d="M351.5,183.5 L362.5,183.5 L362.5,148.5 L351.5,148.5 L351.5,183.5 Z M367.5,143.5 L367.5,188.5 L346.5,188.5 L346.5,143.5 L367.5,143.5 Z" id="Rectangle" fill-rule="nonzero"></path>
                <path d="M383.67,47.636 L388.323,47.636 L394.758,65.621 L394.89,65.621 L401.391,47.636 L405.879,47.636 L396.507,71 L392.91,71 L383.67,47.636 Z M408.123,47.636 L416.406,47.636 C417.924008,47.636 419.452992,47.833998 420.993,48.23 C422.533008,48.626002 423.918994,49.2804954 425.151,50.1935 C426.383006,51.1065046 427.383996,52.3054926 428.154,53.7905 C428.924004,55.2755074 429.309,57.117989 429.309,59.318 C429.309,61.3640102 428.924004,63.1239926 428.154,64.598 C427.383996,66.0720074 426.383006,67.2819953 425.151,68.228 C423.918994,69.1740047 422.533008,69.8724977 420.993,70.3235 C419.452992,70.7745023 417.924008,71 416.406,71 L408.123,71 L408.123,47.636 Z M415.746,67.37 C416.824005,67.37 417.901995,67.2435013 418.98,66.9905 C420.058005,66.7374987 421.031496,66.308503 421.9005,65.7035 C422.769504,65.098497 423.478997,64.2790052 424.029,63.245 C424.579003,62.2109948 424.854,60.9020079 424.854,59.318 C424.854,57.6459916 424.579003,56.2820053 424.029,55.226 C423.478997,54.1699947 422.769504,53.345003 421.9005,52.751 C421.031496,52.156997 420.058005,51.7500011 418.98,51.53 C417.901995,51.3099989 416.824005,51.2 415.746,51.2 L412.281,51.2 L412.281,67.37 L415.746,67.37 Z M433.335,47.636 L441.618,47.636 C443.136008,47.636 444.664992,47.833998 446.205,48.23 C447.745008,48.626002 449.130994,49.2804954 450.363,50.1935 C451.595006,51.1065046 452.595996,52.3054926 453.366,53.7905 C454.136004,55.2755074 454.521,57.117989 454.521,59.318 C454.521,61.3640102 454.136004,63.1239926 453.366,64.598 C452.595996,66.0720074 451.595006,67.2819953 450.363,68.228 C449.130994,69.1740047 447.745008,69.8724977 446.205,70.3235 C444.664992,70.7745023 443.136008,71 441.618,71 L433.335,71 L433.335,47.636 Z M440.958,67.37 C442.036005,67.37 443.113995,67.2435013 444.192,66.9905 C445.270005,66.7374987 446.243496,66.308503 447.1125,65.7035 C447.981504,65.098497 448.690997,64.2790052 449.241,63.245 C449.791003,62.2109948 450.066,60.9020079 450.066,59.318 C450.066,57.6459916 449.791003,56.2820053 449.241,55.226 C448.690997,54.1699947 447.981504,53.345003 447.1125,52.751 C446.243496,52.156997 445.270005,51.7500011 444.192,51.53 C443.113995,51.3099989 442.036005,51.2 440.958,51.2 L437.493,51.2 L437.493,67.37 L440.958,67.37 Z" id="VDD" fill-rule="evenodd"></path>
                <path d="M398.487,103.52 C398.046998,102.947997 397.425504,102.469502 396.6225,102.0845 C395.819496,101.699498 395.011004,101.507 394.197,101.507 C393.712998,101.507 393.229002,101.567499 392.745,101.6885 C392.260998,101.809501 391.821002,101.996499 391.425,102.2495 C391.028998,102.502501 390.704501,102.832498 390.4515,103.2395 C390.198499,103.646502 390.072,104.135997 390.072,104.708 C390.072,105.236003 390.181999,105.686998 390.402,106.061 C390.622001,106.435002 390.924498,106.753999 391.3095,107.018 C391.694502,107.282001 392.161997,107.512999 392.712,107.711 C393.262003,107.909001 393.866997,108.106999 394.527,108.305 C395.275004,108.547001 396.050496,108.821998 396.8535,109.13 C397.656504,109.438002 398.393497,109.844997 399.0645,110.351 C399.735503,110.857003 400.285498,111.494996 400.7145,112.265 C401.143502,113.035004 401.358,113.991994 401.358,115.136 C401.358,116.390006 401.127002,117.484495 400.665,118.4195 C400.202998,119.354505 399.587004,120.129997 398.817,120.746 C398.046996,121.362003 397.145005,121.823998 396.111,122.132 C395.076995,122.440002 393.988006,122.594 392.844,122.594 C391.325992,122.594 389.841007,122.313503 388.389,121.7525 C386.936993,121.191497 385.749005,120.361006 384.825,119.261 L387.795,116.489 C388.367003,117.281004 389.131495,117.907998 390.0885,118.37 C391.045505,118.832002 391.985995,119.063 392.91,119.063 C393.394002,119.063 393.888997,119.002501 394.395,118.8815 C394.901003,118.760499 395.357498,118.557001 395.7645,118.271 C396.171502,117.984999 396.501499,117.627502 396.7545,117.1985 C397.007501,116.769498 397.134,116.236003 397.134,115.598 C397.134,114.981997 396.991001,114.470502 396.705,114.0635 C396.418999,113.656498 396.034002,113.304501 395.55,113.0075 C395.065998,112.710499 394.494003,112.452001 393.834,112.232 L391.755,111.539 C391.050996,111.318999 390.347004,111.055002 389.643,110.747 C388.938996,110.438998 388.306503,110.032003 387.7455,109.526 C387.184497,109.019997 386.728002,108.398504 386.376,107.6615 C386.023998,106.924496 385.848,106.006006 385.848,104.906 C385.848,103.717994 386.095498,102.695004 386.5905,101.837 C387.085502,100.978996 387.734496,100.269503 388.5375,99.7085 C389.340504,99.1474972 390.253495,98.7295014 391.2765,98.4545 C392.299505,98.1794986 393.338995,98.042 394.395,98.042 C395.583006,98.042 396.787494,98.2509979 398.0085,98.669 C399.229506,99.0870021 400.290995,99.7139958 401.193,100.55 L398.487,103.52 Z M405.516,98.636 L420.993,98.636 L420.993,102.266 L409.674,102.266 L409.674,108.206 L420.399,108.206 L420.399,111.704 L409.674,111.704 L409.674,118.304 L421.587,118.304 L421.587,122 L405.516,122 L405.516,98.636 Z M430.365,102.266 L423.204,102.266 L423.204,98.636 L441.684,98.636 L441.684,102.266 L434.523,102.266 L434.523,122 L430.365,122 L430.365,102.266 Z" id="SET" fill-rule="evenodd"></path>
                <path d="M386.574,152.636 L394.857,152.636 C396.375008,152.636 397.903992,152.833998 399.444,153.23 C400.984008,153.626002 402.369994,154.280495 403.602,155.1935 C404.834006,156.106505 405.834996,157.305493 406.605,158.7905 C407.375004,160.275507 407.76,162.117989 407.76,164.318 C407.76,166.36401 407.375004,168.123993 406.605,169.598 C405.834996,171.072007 404.834006,172.281995 403.602,173.228 C402.369994,174.174005 400.984008,174.872498 399.444,175.3235 C397.903992,175.774502 396.375008,176 394.857,176 L386.574,176 L386.574,152.636 Z M394.197,172.37 C395.275005,172.37 396.352995,172.243501 397.431,171.9905 C398.509005,171.737499 399.482496,171.308503 400.3515,170.7035 C401.220504,170.098497 401.929997,169.279005 402.48,168.245 C403.030003,167.210995 403.305,165.902008 403.305,164.318 C403.305,162.645992 403.030003,161.282005 402.48,160.226 C401.929997,159.169995 401.220504,158.345003 400.3515,157.751 C399.482496,157.156997 398.509005,156.750001 397.431,156.53 C396.352995,156.309999 395.275005,156.2 394.197,156.2 L390.732,156.2 L390.732,172.37 L394.197,172.37 Z M411.786,152.636 L415.944,152.636 L415.944,176 L411.786,176 L411.786,152.636 Z M421.092,152.636 L426.603,152.636 L437.46,170.126 L437.526,170.126 L437.526,152.636 L441.684,152.636 L441.684,176 L436.404,176 L425.316,157.949 L425.25,157.949 L425.25,176 L421.092,176 L421.092,152.636 Z" id="DIN" fill-rule="evenodd"></path>
                <path d="M386.574,205.636 L394.857,205.636 C396.375008,205.636 397.903992,205.833998 399.444,206.23 C400.984008,206.626002 402.369994,207.280495 403.602,208.1935 C404.834006,209.106505 405.834996,210.305493 406.605,211.7905 C407.375004,213.275507 407.76,215.117989 407.76,217.318 C407.76,219.36401 407.375004,221.123993 406.605,222.598 C405.834996,224.072007 404.834006,225.281995 403.602,226.228 C402.369994,227.174005 400.984008,227.872498 399.444,228.3235 C397.903992,228.774502 396.375008,229 394.857,229 L386.574,229 L386.574,205.636 Z M394.197,225.37 C395.275005,225.37 396.352995,225.243501 397.431,224.9905 C398.509005,224.737499 399.482496,224.308503 400.3515,223.7035 C401.220504,223.098497 401.929997,222.279005 402.48,221.245 C403.030003,220.210995 403.305,218.902008 403.305,217.318 C403.305,215.645992 403.030003,214.282005 402.48,213.226 C401.929997,212.169995 401.220504,211.345003 400.3515,210.751 C399.482496,210.156997 398.509005,209.750001 397.431,209.53 C396.352995,209.309999 395.275005,209.2 394.197,209.2 L390.732,209.2 L390.732,225.37 L394.197,225.37 Z M410.664,217.252 C410.664,215.381991 410.977497,213.693508 411.6045,212.1865 C412.231503,210.679492 413.100494,209.398005 414.2115,208.342 C415.322506,207.285995 416.642492,206.472003 418.1715,205.9 C419.700508,205.327997 421.366991,205.042 423.171,205.042 C424.997009,205.042 426.679992,205.327997 428.22,205.9 C429.760008,206.472003 431.090994,207.285995 432.213,208.342 C433.335006,209.398005 434.209497,210.679492 434.8365,212.1865 C435.463503,213.693508 435.777,215.381991 435.777,217.252 C435.777,219.078009 435.463503,220.744492 434.8365,222.2515 C434.209497,223.758508 433.335006,225.056495 432.213,226.1455 C431.090994,227.234505 429.760008,228.081497 428.22,228.6865 C426.679992,229.291503 424.997009,229.594 423.171,229.594 C421.366991,229.594 419.700508,229.291503 418.1715,228.6865 C416.642492,228.081497 415.322506,227.234505 414.2115,226.1455 C413.100494,225.056495 412.231503,223.758508 411.6045,222.2515 C410.977497,220.744492 410.664,219.078009 410.664,217.252 Z M415.185,217.252 C415.185,218.506006 415.377498,219.655495 415.7625,220.7005 C416.147502,221.745505 416.697496,222.652996 417.4125,223.423 C418.127504,224.193004 418.974495,224.792498 419.9535,225.2215 C420.932505,225.650502 422.015994,225.865 423.204,225.865 C424.392006,225.865 425.480995,225.650502 426.471,225.2215 C427.461005,224.792498 428.313496,224.193004 429.0285,223.423 C429.743504,222.652996 430.293498,221.745505 430.6785,220.7005 C431.063502,219.655495 431.256,218.506006 431.256,217.252 C431.256,216.041994 431.063502,214.920005 430.6785,213.886 C430.293498,212.851995 429.749004,211.950004 429.045,211.18 C428.340996,210.409996 427.494005,209.805002 426.504,209.365 C425.513995,208.924998 424.414006,208.705 423.204,208.705 C421.993994,208.705 420.899505,208.924998 419.9205,209.365 C418.941495,209.805002 418.100004,210.409996 417.396,211.18 C416.691996,211.950004 416.147502,212.851995 415.7625,213.886 C415.377498,214.920005 415.185,216.041994 415.185,217.252 Z" id="DO" fill-rule="evenodd"></path>
                <path d="M50.372,59.252 C50.372,57.3819906 50.6854969,55.6935075 51.3125,54.1865 C51.9395031,52.6794925 52.8084944,51.3980053 53.9195,50.342 C55.0305056,49.2859947 56.3504924,48.4720029 57.8795,47.9 C59.4085076,47.3279971 61.074991,47.042 62.879,47.042 C64.7050091,47.042 66.3879923,47.3279971 67.928,47.9 C69.4680077,48.4720029 70.7989944,49.2859947 71.921,50.342 C73.0430056,51.3980053 73.9174969,52.6794925 74.5445,54.1865 C75.1715031,55.6935075 75.485,57.3819906 75.485,59.252 C75.485,61.0780091 75.1715031,62.7444925 74.5445,64.2515 C73.9174969,65.7585075 73.0430056,67.0564946 71.921,68.1455 C70.7989944,69.2345054 69.4680077,70.081497 67.928,70.6865 C66.3879923,71.291503 64.7050091,71.594 62.879,71.594 C61.074991,71.594 59.4085076,71.291503 57.8795,70.6865 C56.3504924,70.081497 55.0305056,69.2345054 53.9195,68.1455 C52.8084944,67.0564946 51.9395031,65.7585075 51.3125,64.2515 C50.6854969,62.7444925 50.372,61.0780091 50.372,59.252 Z M54.893,59.252 C54.893,60.5060063 55.0854981,61.6554948 55.4705,62.7005 C55.8555019,63.7455052 56.4054964,64.6529962 57.1205,65.423 C57.8355036,66.1930038 58.6824951,66.7924979 59.6615,67.2215 C60.6405049,67.6505021 61.7239941,67.865 62.912,67.865 C64.1000059,67.865 65.1889951,67.6505021 66.179,67.2215 C67.169005,66.7924979 68.0214964,66.1930038 68.7365,65.423 C69.4515036,64.6529962 70.0014981,63.7455052 70.3865,62.7005 C70.7715019,61.6554948 70.964,60.5060063 70.964,59.252 C70.964,58.0419939 70.7715019,56.9200052 70.3865,55.886 C70.0014981,54.8519948 69.4570035,53.9500039 68.753,53.18 C68.0489965,52.4099961 67.202005,51.8050022 66.212,51.365 C65.2219951,50.9249978 64.122006,50.705 62.912,50.705 C61.7019939,50.705 60.6075049,50.9249978 59.6285,51.365 C58.6494951,51.8050022 57.8080035,52.4099961 57.104,53.18 C56.3999965,53.9500039 55.8555019,54.8519948 55.4705,55.886 C55.0854981,56.9200052 54.893,58.0419939 54.893,59.252 Z M98.123,62.42 C98.123,63.828007 97.8810024,65.0984943 97.397,66.2315 C96.9129976,67.3645057 96.2530042,68.326996 95.417,69.119 C94.5809958,69.911004 93.5910057,70.5214979 92.447,70.9505 C91.3029943,71.3795021 90.0600067,71.594 88.718,71.594 C87.3759933,71.594 86.1330057,71.3795021 84.989,70.9505 C83.8449943,70.5214979 82.8495042,69.911004 82.0025,69.119 C81.1554958,68.326996 80.4955024,67.3645057 80.0225,66.2315 C79.5494976,65.0984943 79.313,63.828007 79.313,62.42 L79.313,47.636 L83.471,47.636 L83.471,62.255 C83.471,62.9370034 83.5589991,63.6134966 83.735,64.2845 C83.9110009,64.9555034 84.202498,65.5549974 84.6095,66.083 C85.016502,66.6110026 85.5554966,67.0399984 86.2265,67.37 C86.8975034,67.7000017 87.727995,67.865 88.718,67.865 C89.7080049,67.865 90.5384966,67.7000017 91.2095,67.37 C91.8805034,67.0399984 92.419498,66.6110026 92.8265,66.083 C93.233502,65.5549974 93.5249991,64.9555034 93.701,64.2845 C93.8770009,63.6134966 93.965,62.9370034 93.965,62.255 L93.965,47.636 L98.123,47.636 L98.123,62.42 Z M107.792,51.266 L100.631,51.266 L100.631,47.636 L119.111,47.636 L119.111,51.266 L111.95,51.266 L111.95,71 L107.792,71 L107.792,51.266 Z M121.817,47.636 L129.935,47.636 C131.035006,47.636 132.101995,47.7514988 133.136,47.9825 C134.170005,48.2135012 135.088496,48.5929974 135.8915,49.121 C136.694504,49.6490026 137.337998,50.3419957 137.822,51.2 C138.306002,52.0580043 138.548,53.1029938 138.548,54.335 C138.548,56.0290085 138.069505,57.4094947 137.1125,58.4765 C136.155495,59.5435053 134.852008,60.2639981 133.202,60.638 L139.439,71 L134.423,71 L129.011,61.1 L125.975,61.1 L125.975,71 L121.817,71 L121.817,47.636 Z M129.374,57.701 C129.968003,57.701 130.561997,57.6570004 131.156,57.569 C131.750003,57.4809996 132.283498,57.3160012 132.7565,57.074 C133.229502,56.8319988 133.619998,56.4855023 133.928,56.0345 C134.236002,55.5834977 134.39,55.0060035 134.39,54.302 C134.39,53.6639968 134.247001,53.141502 133.961,52.7345 C133.674999,52.327498 133.312002,52.0030012 132.872,51.761 C132.431998,51.5189988 131.931503,51.3540004 131.3705,51.266 C130.809497,51.1779996 130.265003,51.134 129.737,51.134 L125.975,51.134 L125.975,57.701 L129.374,57.701 Z" id="OUTR" fill-rule="evenodd"></path>
                <path d="M45.62,110.252 C45.62,108.381991 45.9334969,106.693508 46.5605,105.1865 C47.1875031,103.679492 48.0564944,102.398005 49.1675,101.342 C50.2785056,100.285995 51.5984924,99.4720029 53.1275,98.9 C54.6565076,98.3279971 56.322991,98.042 58.127,98.042 C59.9530091,98.042 61.6359923,98.3279971 63.176,98.9 C64.7160077,99.4720029 66.0469944,100.285995 67.169,101.342 C68.2910056,102.398005 69.1654969,103.679492 69.7925,105.1865 C70.4195031,106.693508 70.733,108.381991 70.733,110.252 C70.733,112.078009 70.4195031,113.744492 69.7925,115.2515 C69.1654969,116.758508 68.2910056,118.056495 67.169,119.1455 C66.0469944,120.234505 64.7160077,121.081497 63.176,121.6865 C61.6359923,122.291503 59.9530091,122.594 58.127,122.594 C56.322991,122.594 54.6565076,122.291503 53.1275,121.6865 C51.5984924,121.081497 50.2785056,120.234505 49.1675,119.1455 C48.0564944,118.056495 47.1875031,116.758508 46.5605,115.2515 C45.9334969,113.744492 45.62,112.078009 45.62,110.252 Z M50.141,110.252 C50.141,111.506006 50.3334981,112.655495 50.7185,113.7005 C51.1035019,114.745505 51.6534964,115.652996 52.3685,116.423 C53.0835036,117.193004 53.9304951,117.792498 54.9095,118.2215 C55.8885049,118.650502 56.9719941,118.865 58.16,118.865 C59.3480059,118.865 60.436995,118.650502 61.427,118.2215 C62.4170049,117.792498 63.2694964,117.193004 63.9845,116.423 C64.6995036,115.652996 65.2494981,114.745505 65.6345,113.7005 C66.0195019,112.655495 66.212,111.506006 66.212,110.252 C66.212,109.041994 66.0195019,107.920005 65.6345,106.886 C65.2494981,105.851995 64.7050035,104.950004 64.001,104.18 C63.2969965,103.409996 62.4500049,102.805002 61.46,102.365 C60.469995,101.924998 59.370006,101.705 58.16,101.705 C56.9499939,101.705 55.8555049,101.924998 54.8765,102.365 C53.8974951,102.805002 53.0560035,103.409996 52.352,104.18 C51.6479965,104.950004 51.1035019,105.851995 50.7185,106.886 C50.3334981,107.920005 50.141,109.041994 50.141,110.252 Z M93.371,113.42 C93.371,114.828007 93.1290024,116.098494 92.645,117.2315 C92.1609976,118.364506 91.5010042,119.326996 90.665,120.119 C89.8289958,120.911004 88.8390057,121.521498 87.695,121.9505 C86.5509943,122.379502 85.3080067,122.594 83.966,122.594 C82.6239933,122.594 81.3810057,122.379502 80.237,121.9505 C79.0929943,121.521498 78.0975042,120.911004 77.2505,120.119 C76.4034958,119.326996 75.7435024,118.364506 75.2705,117.2315 C74.7974976,116.098494 74.561,114.828007 74.561,113.42 L74.561,98.636 L78.719,98.636 L78.719,113.255 C78.719,113.937003 78.8069991,114.613497 78.983,115.2845 C79.1590009,115.955503 79.450498,116.554997 79.8575,117.083 C80.264502,117.611003 80.8034966,118.039998 81.4745,118.37 C82.1455034,118.700002 82.975995,118.865 83.966,118.865 C84.9560049,118.865 85.7864966,118.700002 86.4575,118.37 C87.1285034,118.039998 87.667498,117.611003 88.0745,117.083 C88.481502,116.554997 88.7729991,115.955503 88.949,115.2845 C89.1250009,114.613497 89.213,113.937003 89.213,113.255 L89.213,98.636 L93.371,98.636 L93.371,113.42 Z M103.04,102.266 L95.879,102.266 L95.879,98.636 L114.359,98.636 L114.359,102.266 L107.198,102.266 L107.198,122 L103.04,122 L103.04,102.266 Z M137.525,120.779 C136.336994,121.351003 135.033507,121.796498 133.6145,122.1155 C132.195493,122.434502 130.562009,122.594 128.714,122.594 C126.821991,122.594 125.095008,122.291503 123.533,121.6865 C121.970992,121.081497 120.629006,120.234505 119.507,119.1455 C118.384994,118.056495 117.510503,116.758508 116.8835,115.2515 C116.256497,113.744492 115.943,112.078009 115.943,110.252 C115.943,108.381991 116.267497,106.693508 116.9165,105.1865 C117.565503,103.679492 118.456494,102.398005 119.5895,101.342 C120.722506,100.285995 122.058992,99.4720029 123.599,98.9 C125.139008,98.3279971 126.810991,98.042 128.615,98.042 C130.485009,98.042 132.195492,98.3114973 133.7465,98.8505 C135.297508,99.3895027 136.545995,100.098996 137.492,100.979 L134.621,104.081 C134.026997,103.420997 133.196505,102.860002 132.1295,102.398 C131.062495,101.935998 129.902006,101.705 128.648,101.705 C127.415994,101.705 126.299505,101.924998 125.2985,102.365 C124.297495,102.805002 123.445004,103.409996 122.741,104.18 C122.036996,104.950004 121.492502,105.851995 121.1075,106.886 C120.722498,107.920005 120.53,109.041994 120.53,110.252 C120.53,111.506006 120.722498,112.655495 121.1075,113.7005 C121.492502,114.745505 122.042496,115.652996 122.7575,116.423 C123.472504,117.193004 124.341495,117.792498 125.3645,118.2215 C126.387505,118.650502 127.547994,118.865 128.846,118.865 C130.628009,118.865 132.178993,118.590003 133.499,118.04 L133.499,112.1 L128.582,112.1 L128.582,108.668 L137.525,108.668 L137.525,120.779 Z" id="OUTG" fill-rule="evenodd"></path>
                <path d="M49.778,164.252 C49.778,162.381991 50.0914969,160.693508 50.7185,159.1865 C51.3455031,157.679492 52.2144944,156.398005 53.3255,155.342 C54.4365056,154.285995 55.7564924,153.472003 57.2855,152.9 C58.8145076,152.327997 60.480991,152.042 62.285,152.042 C64.1110091,152.042 65.7939923,152.327997 67.334,152.9 C68.8740077,153.472003 70.2049944,154.285995 71.327,155.342 C72.4490056,156.398005 73.3234969,157.679492 73.9505,159.1865 C74.5775031,160.693508 74.891,162.381991 74.891,164.252 C74.891,166.078009 74.5775031,167.744492 73.9505,169.2515 C73.3234969,170.758508 72.4490056,172.056495 71.327,173.1455 C70.2049944,174.234505 68.8740077,175.081497 67.334,175.6865 C65.7939923,176.291503 64.1110091,176.594 62.285,176.594 C60.480991,176.594 58.8145076,176.291503 57.2855,175.6865 C55.7564924,175.081497 54.4365056,174.234505 53.3255,173.1455 C52.2144944,172.056495 51.3455031,170.758508 50.7185,169.2515 C50.0914969,167.744492 49.778,166.078009 49.778,164.252 Z M54.299,164.252 C54.299,165.506006 54.4914981,166.655495 54.8765,167.7005 C55.2615019,168.745505 55.8114964,169.652996 56.5265,170.423 C57.2415036,171.193004 58.0884951,171.792498 59.0675,172.2215 C60.0465049,172.650502 61.1299941,172.865 62.318,172.865 C63.5060059,172.865 64.594995,172.650502 65.585,172.2215 C66.5750049,171.792498 67.4274964,171.193004 68.1425,170.423 C68.8575036,169.652996 69.4074981,168.745505 69.7925,167.7005 C70.1775019,166.655495 70.37,165.506006 70.37,164.252 C70.37,163.041994 70.1775019,161.920005 69.7925,160.886 C69.4074981,159.851995 68.8630035,158.950004 68.159,158.18 C67.4549965,157.409996 66.6080049,156.805002 65.618,156.365 C64.627995,155.924998 63.528006,155.705 62.318,155.705 C61.1079939,155.705 60.0135049,155.924998 59.0345,156.365 C58.0554951,156.805002 57.2140035,157.409996 56.51,158.18 C55.8059965,158.950004 55.2615019,159.851995 54.8765,160.886 C54.4914981,161.920005 54.299,163.041994 54.299,164.252 Z M97.529,167.42 C97.529,168.828007 97.2870024,170.098494 96.803,171.2315 C96.3189976,172.364506 95.6590042,173.326996 94.823,174.119 C93.9869958,174.911004 92.9970057,175.521498 91.853,175.9505 C90.7089943,176.379502 89.4660067,176.594 88.124,176.594 C86.7819933,176.594 85.5390057,176.379502 84.395,175.9505 C83.2509943,175.521498 82.2555042,174.911004 81.4085,174.119 C80.5614958,173.326996 79.9015024,172.364506 79.4285,171.2315 C78.9554976,170.098494 78.719,168.828007 78.719,167.42 L78.719,152.636 L82.877,152.636 L82.877,167.255 C82.877,167.937003 82.9649991,168.613497 83.141,169.2845 C83.3170009,169.955503 83.608498,170.554997 84.0155,171.083 C84.422502,171.611003 84.9614966,172.039998 85.6325,172.37 C86.3035034,172.700002 87.133995,172.865 88.124,172.865 C89.1140049,172.865 89.9444966,172.700002 90.6155,172.37 C91.2865034,172.039998 91.825498,171.611003 92.2325,171.083 C92.639502,170.554997 92.9309991,169.955503 93.107,169.2845 C93.2830009,168.613497 93.371,167.937003 93.371,167.255 L93.371,152.636 L97.529,152.636 L97.529,167.42 Z M107.198,156.266 L100.037,156.266 L100.037,152.636 L118.517,152.636 L118.517,156.266 L111.356,156.266 L111.356,176 L107.198,176 L107.198,156.266 Z M121.223,152.636 L130.331,152.636 C131.211004,152.636 132.079996,152.740499 132.938,152.9495 C133.796004,153.158501 134.560497,153.499498 135.2315,153.9725 C135.902503,154.445502 136.446998,155.055996 136.865,155.804 C137.283002,156.552004 137.492,157.453995 137.492,158.51 C137.492,159.830007 137.118004,160.918996 136.37,161.777 C135.621996,162.635004 134.643006,163.250998 133.433,163.625 L133.433,163.691 C134.907007,163.889001 136.116995,164.460995 137.063,165.407 C138.009005,166.353005 138.482,167.617992 138.482,169.202 C138.482,170.478006 138.229003,171.550496 137.723,172.4195 C137.216997,173.288504 136.551504,173.986997 135.7265,174.515 C134.901496,175.043003 133.955505,175.422499 132.8885,175.6535 C131.821495,175.884501 130.738005,176 129.638,176 L121.223,176 L121.223,152.636 Z M125.381,162.14 L129.077,162.14 C130.463007,162.14 131.518996,161.865003 132.245,161.315 C132.971004,160.764997 133.334,159.984005 133.334,158.972 C133.334,157.915995 132.960004,157.168002 132.212,156.728 C131.463996,156.287998 130.298008,156.068 128.714,156.068 L125.381,156.068 L125.381,162.14 Z M125.381,172.502 L129.11,172.502 C129.638003,172.502 130.209997,172.4635 130.826,172.3865 C131.442003,172.3095 132.008497,172.150001 132.5255,171.908 C133.042503,171.665999 133.471498,171.314002 133.8125,170.852 C134.153502,170.389998 134.324,169.774004 134.324,169.004 C134.324,167.771994 133.906004,166.914002 133.07,166.43 C132.233996,165.945998 130.969008,165.704 129.275,165.704 L125.381,165.704 L125.381,172.502 Z" id="OUTB" fill-rule="evenodd"></path>
                <path d="M86.573,227.779 C85.3849941,228.351003 84.0815071,228.796498 82.6625,229.1155 C81.2434929,229.434502 79.6100092,229.594 77.762,229.594 C75.8699905,229.594 74.1430078,229.291503 72.581,228.6865 C71.0189922,228.081497 69.6770056,227.234505 68.555,226.1455 C67.4329944,225.056495 66.5585031,223.758508 65.9315,222.2515 C65.3044969,220.744492 64.991,219.078009 64.991,217.252 C64.991,215.381991 65.3154968,213.693508 65.9645,212.1865 C66.6135032,210.679492 67.5044943,209.398005 68.6375,208.342 C69.7705057,207.285995 71.1069923,206.472003 72.647,205.9 C74.1870077,205.327997 75.858991,205.042 77.663,205.042 C79.5330094,205.042 81.2434922,205.311497 82.7945,205.8505 C84.3455078,206.389503 85.5939953,207.098996 86.54,207.979 L83.669,211.081 C83.074997,210.420997 82.2445053,209.860002 81.1775,209.398 C80.1104947,208.935998 78.9500063,208.705 77.696,208.705 C76.4639938,208.705 75.347505,208.924998 74.3465,209.365 C73.345495,209.805002 72.4930035,210.409996 71.789,211.18 C71.0849965,211.950004 70.5405019,212.851995 70.1555,213.886 C69.7704981,214.920005 69.578,216.041994 69.578,217.252 C69.578,218.506006 69.7704981,219.655495 70.1555,220.7005 C70.5405019,221.745505 71.0904964,222.652996 71.8055,223.423 C72.5205036,224.193004 73.3894949,224.792498 74.4125,225.2215 C75.4355051,225.650502 76.5959935,225.865 77.894,225.865 C79.6760089,225.865 81.2269934,225.590003 82.547,225.04 L82.547,219.1 L77.63,219.1 L77.63,215.668 L86.573,215.668 L86.573,227.779 Z M91.622,205.636 L97.133,205.636 L107.99,223.126 L108.056,223.126 L108.056,205.636 L112.214,205.636 L112.214,229 L106.934,229 L95.846,210.949 L95.78,210.949 L95.78,229 L91.622,229 L91.622,205.636 Z M117.362,205.636 L125.645,205.636 C127.163008,205.636 128.691992,205.833998 130.232,206.23 C131.772008,206.626002 133.157994,207.280495 134.39,208.1935 C135.622006,209.106505 136.622996,210.305493 137.393,211.7905 C138.163004,213.275507 138.548,215.117989 138.548,217.318 C138.548,219.36401 138.163004,221.123993 137.393,222.598 C136.622996,224.072007 135.622006,225.281995 134.39,226.228 C133.157994,227.174005 131.772008,227.872498 130.232,228.3235 C128.691992,228.774502 127.163008,229 125.645,229 L117.362,229 L117.362,205.636 Z M124.985,225.37 C126.063005,225.37 127.140995,225.243501 128.219,224.9905 C129.297005,224.737499 130.270496,224.308503 131.1395,223.7035 C132.008504,223.098497 132.717997,222.279005 133.268,221.245 C133.818003,220.210995 134.093,218.902008 134.093,217.318 C134.093,215.645992 133.818003,214.282005 133.268,213.226 C132.717997,212.169995 132.008504,211.345003 131.1395,210.751 C130.270496,210.156997 129.297005,209.750001 128.219,209.53 C127.140995,209.309999 126.063005,209.2 124.985,209.2 L121.52,209.2 L121.52,225.37 L124.985,225.37 Z" id="GND" fill-rule="evenodd"></path>
                <polygon id="1" fill-rule="evenodd" points="204.504 55.952 200.577 58.658 196.881 52.916 205.164 47.636 212.424 47.636 212.424 71 204.504 71"></polygon>
                <path d="M206.418,108.503 C206.792002,108.216999 207.099999,107.898002 207.342,107.546 C207.584001,107.193998 207.705,106.831002 207.705,106.457 C207.705,106.016998 207.567501,105.632002 207.2925,105.302 C207.017499,104.971998 206.583003,104.807 205.989,104.807 C205.350997,104.807 204.823002,105.059997 204.405,105.566 C203.986998,106.072003 203.756,106.753996 203.712,107.612 L196.221,106.754 C196.375001,105.235992 196.770997,103.927006 197.409,102.827 C198.047003,101.726995 198.844495,100.814004 199.8015,100.088 C200.758505,99.3619964 201.825494,98.8285017 203.0025,98.4875 C204.179506,98.1464983 205.394994,97.976 206.649,97.976 C207.793006,97.976 208.931494,98.1189986 210.0645,98.405 C211.197506,98.6910014 212.203996,99.136497 213.084,99.7415 C213.964004,100.346503 214.678997,101.132995 215.229,102.101 C215.779003,103.069005 216.054,104.234993 216.054,105.599 C216.054,106.567005 215.927501,107.419496 215.6745,108.1565 C215.421499,108.893504 215.080502,109.547997 214.6515,110.12 C214.222498,110.692003 213.738503,111.208998 213.1995,111.671 C212.660497,112.133002 212.094003,112.572998 211.5,112.991 L208.068,115.433 L216.12,115.433 L216.12,122 L197.178,122 L197.178,115.895 L206.418,108.503 Z" id="2" fill-rule="evenodd"></path>
                <path d="M212.589,163.757 C213.183003,163.955001 213.727498,164.229998 214.2225,164.582 C214.717502,164.934002 215.140998,165.340998 215.493,165.803 C215.845002,166.265002 216.114499,166.765497 216.3015,167.3045 C216.488501,167.843503 216.582,168.387997 216.582,168.938 C216.582,170.302007 216.296003,171.473495 215.724,172.4525 C215.151997,173.431505 214.404005,174.234497 213.48,174.8615 C212.555995,175.488503 211.511006,175.944999 210.345,176.231 C209.178994,176.517001 208.002006,176.66 206.814,176.66 C205.625994,176.66 204.454506,176.522501 203.2995,176.2475 C202.144494,175.972499 201.088505,175.538003 200.1315,174.944 C199.174495,174.349997 198.338504,173.602005 197.6235,172.7 C196.908496,171.797995 196.397002,170.720006 196.089,169.466 L203.415,167.75 C203.547001,168.322003 203.871497,168.849998 204.3885,169.334 C204.905503,169.818002 205.570996,170.06 206.385,170.06 C206.605001,170.06 206.835999,170.0325 207.078,169.9775 C207.320001,169.9225 207.539999,169.834501 207.738,169.7135 C207.936001,169.592499 208.100999,169.433001 208.233,169.235 C208.365001,169.036999 208.431,168.784002 208.431,168.476 C208.431,167.771996 208.123003,167.310001 207.507,167.09 C206.890997,166.869999 206.066005,166.76 205.032,166.76 L202.788,166.76 L202.788,161.348 L205.296,161.348 C206.132004,161.348 206.802997,161.232501 207.309,161.0015 C207.815003,160.770499 208.068,160.325003 208.068,159.665 C208.068,159.158997 207.870002,158.807001 207.474,158.609 C207.077998,158.410999 206.660002,158.312 206.22,158.312 C205.669997,158.312 205.164002,158.482498 204.702,158.8235 C204.239998,159.164502 203.954001,159.664997 203.844,160.325 L196.551,158.774 C196.947002,157.497994 197.507996,156.425504 198.234,155.5565 C198.960004,154.687496 199.790495,153.989003 200.7255,153.461 C201.660505,152.932997 202.661495,152.553501 203.7285,152.3225 C204.795505,152.091499 205.845995,151.976 206.88,151.976 C207.914005,151.976 208.980995,152.102499 210.081,152.3555 C211.181005,152.608501 212.181995,153.015497 213.084,153.5765 C213.986005,154.137503 214.722997,154.852496 215.295,155.7215 C215.867003,156.590504 216.153,157.640994 216.153,158.873 C216.153,160.193007 215.806503,161.243496 215.1135,162.0245 C214.420497,162.805504 213.579005,163.338999 212.589,163.625 L212.589,163.757 Z" id="3" fill-rule="evenodd"></path>
                <path d="M214.404,229 L207.276,229 L207.276,224.875 L196.023,224.875 L196.023,218.473 L204.867,205.636 L214.371,205.636 L214.371,218.737 L217.539,218.737 L217.539,224.875 L214.404,224.875 L214.404,229 Z M207.243,212.83 L203.349,218.737 L207.375,218.737 L207.375,212.83 L207.243,212.83 Z" id="4" fill-rule="evenodd"></path>
                <path d="M325.55,52.817 C324.955997,52.817 324.488502,52.9984982 324.1475,53.3615 C323.806498,53.7245018 323.636,54.1149979 323.636,54.533 C323.636,54.9730022 323.806498,55.3799981 324.1475,55.754 C324.488502,56.1280019 324.955997,56.315 325.55,56.315 C326.144003,56.315 326.611498,56.1280019 326.9525,55.754 C327.293502,55.3799981 327.464,54.9730022 327.464,54.533 C327.464,54.1149979 327.293502,53.7245018 326.9525,53.3615 C326.611498,52.9984982 326.144003,52.817 325.55,52.817 Z M325.55,61.859 C324.867997,61.859 324.356502,62.056998 324.0155,62.453 C323.674498,62.849002 323.504,63.2999975 323.504,63.806 C323.504,64.3120025 323.674498,64.7574981 324.0155,65.1425 C324.356502,65.5275019 324.867997,65.72 325.55,65.72 C326.232003,65.72 326.743498,65.5275019 327.0845,65.1425 C327.425502,64.7574981 327.596,64.3120025 327.596,63.806 C327.596,63.2999975 327.425502,62.849002 327.0845,62.453 C326.743498,62.056998 326.232003,61.859 325.55,61.859 Z M331.358,58.856 C332.480006,59.2740021 333.409496,59.9504953 334.1465,60.8855 C334.883504,61.8205047 335.252,62.9479934 335.252,64.268 C335.252,65.5880066 334.971503,66.7154953 334.4105,67.6505 C333.849497,68.5855047 333.112505,69.349997 332.1995,69.944 C331.286495,70.538003 330.252506,70.9724986 329.0975,71.2475 C327.942494,71.5225014 326.760006,71.66 325.55,71.66 C324.339994,71.66 323.152006,71.5280013 321.986,71.264 C320.819994,70.9999987 319.786005,70.571003 318.884,69.977 C317.981995,69.382997 317.250503,68.6185047 316.6895,67.6835 C316.128497,66.7484953 315.848,65.6210066 315.848,64.301 C315.848,63.0249936 316.205496,61.9250046 316.9205,61.001 C317.635504,60.0769954 318.575994,59.3730024 319.742,58.889 L319.742,58.79 C318.773995,58.4159981 317.949003,57.8055042 317.267,56.9585 C316.584997,56.1114958 316.244,55.0830061 316.244,53.873 C316.244,52.662994 316.507997,51.6180044 317.036,50.738 C317.564003,49.8579956 318.262496,49.1430028 319.1315,48.593 C320.000504,48.0429972 320.995994,47.6360013 322.118,47.372 C323.240006,47.1079987 324.383994,46.976 325.55,46.976 C326.694006,46.976 327.826994,47.1079987 328.949,47.372 C330.071006,47.6360013 331.066496,48.0429972 331.9355,48.593 C332.804504,49.1430028 333.508497,49.8579956 334.0475,50.738 C334.586503,51.6180044 334.856,52.662994 334.856,53.873 C334.856,55.0830061 334.537003,56.1114958 333.899,56.9585 C333.260997,57.8055042 332.414005,58.4049982 331.358,58.757 L331.358,58.856 Z" id="8" fill-rule="evenodd"></path>
                <polygon id="7" fill-rule="evenodd" points="317.828 122 326.705 105.17 316.673 105.17 316.673 98.636 335.285 98.636 335.285 104.213 326.936 122"></polygon>
                <path d="M327.794,159.962 C328.806005,159.962 329.790495,160.132498 330.7475,160.4735 C331.704505,160.814502 332.556996,161.314997 333.305,161.975 C334.053004,162.635003 334.652498,163.448995 335.1035,164.417 C335.554502,165.385005 335.78,166.495994 335.78,167.75 C335.78,169.224007 335.505003,170.516494 334.955,171.6275 C334.404997,172.738506 333.657005,173.667996 332.711,174.416 C331.764995,175.164004 330.676006,175.724998 329.444,176.099 C328.211994,176.473002 326.914007,176.66 325.55,176.66 C324.185993,176.66 322.888006,176.478502 321.656,176.1155 C320.423994,175.752498 319.335005,175.208004 318.389,174.482 C317.442995,173.755996 316.695003,172.837506 316.145,171.7265 C315.594997,170.615494 315.32,169.312007 315.32,167.816 C315.32,166.341993 315.611497,164.961506 316.1945,163.6745 C316.777503,162.387494 317.453996,161.205005 318.224,160.127 L323.57,152.636 L333.107,152.636 L327.728,159.599 L327.431,159.962 L327.794,159.962 Z M325.55,165.44 C324.845996,165.44 324.268502,165.665498 323.8175,166.1165 C323.366498,166.567502 323.141,167.122997 323.141,167.783 C323.141,168.465003 323.366498,169.036998 323.8175,169.499 C324.268502,169.961002 324.845996,170.192 325.55,170.192 C326.298004,170.192 326.897498,169.961002 327.3485,169.499 C327.799502,169.036998 328.025,168.465003 328.025,167.783 C328.025,167.122997 327.799502,166.567502 327.3485,166.1165 C326.897498,165.665498 326.298004,165.44 325.55,165.44 Z" id="6" fill-rule="evenodd"></path>
                <path d="M335.45,221.146 C335.45,222.774008 335.153003,224.132495 334.559,225.2215 C333.964997,226.310505 333.200505,227.184997 332.2655,227.845 C331.330495,228.505003 330.285506,228.972499 329.1305,229.2475 C327.975494,229.522501 326.837006,229.66 325.715,229.66 C324.526994,229.66 323.361006,229.500502 322.217,229.1815 C321.072994,228.862498 320.028005,228.395003 319.082,227.779 C318.135995,227.162997 317.333003,226.409504 316.673,225.5185 C316.012997,224.627496 315.573001,223.610006 315.353,222.466 L322.613,220.618 C322.745001,221.256003 323.069497,221.811498 323.5865,222.2845 C324.103503,222.757502 324.724996,222.994 325.451,222.994 C326.023003,222.994 326.528998,222.862001 326.969,222.598 C327.409002,222.333999 327.629,221.872003 327.629,221.212 C327.629,220.815998 327.502501,220.491501 327.2495,220.2385 C326.996499,219.985499 326.672002,219.782001 326.276,219.628 C325.879998,219.473999 325.434502,219.3695 324.9395,219.3145 C324.444498,219.2595 323.955002,219.232 323.471,219.232 C323.118998,219.232 322.695502,219.2485 322.2005,219.2815 C321.705498,219.3145 321.183003,219.364 320.633,219.43 C320.082997,219.496 319.527503,219.573 318.9665,219.661 C318.405497,219.749 317.872003,219.837 317.366,219.925 L318.191,205.636 L334.064,205.636 L334.064,212.17 L324.824,212.17 L324.692,213.853 C325.000002,213.809 325.307998,213.7705 325.616,213.7375 C325.924002,213.7045 326.198999,213.688 326.441,213.688 C327.651006,213.688 328.800495,213.830999 329.8895,214.117 C330.978505,214.403001 331.935496,214.848497 332.7605,215.4535 C333.585504,216.058503 334.239998,216.833995 334.724,217.78 C335.208002,218.726005 335.45,219.847994 335.45,221.146 Z" id="5" fill-rule="evenodd"></path>
                <path d="M243.001591,11.430932 C241.736798,38.8702157 248.995375,53.0515432 265,53.0515432 C281.004625,53.0515432 288.263202,38.8702157 286.998409,11.430932 L286.929341,9.93252296 L283.932523,10.070659 L284.001591,11.569068 C285.198325,37.5318419 278.790235,50.0515432 265,50.0515432 C251.209765,50.0515432 244.801675,37.5318419 245.998409,11.569068 L246.067477,10.070659 L243.070659,9.93252296 L243.001591,11.430932 Z" id="Line" fill-rule="nonzero"></path>
                <path d="M351.5,131.5 L362.5,131.5 L362.5,96.5 L351.5,96.5 L351.5,131.5 Z M367.5,91.5 L367.5,136.5 L346.5,136.5 L346.5,91.5 L367.5,91.5 Z" id="Rectangle" fill-rule="nonzero"></path>
                <path d="M351.5,42.5 L351.5,77.5 L362.5,77.5 L362.5,42.5 L351.5,42.5 Z M367.5,37.5 L367.5,82.5 L346.5,82.5 L346.5,37.5 L367.5,37.5 Z" id="Rectangle" fill-rule="nonzero"></path>
                <path d="M165.5,202.5 L165.5,237.5 L176.5,237.5 L176.5,202.5 L165.5,202.5 Z M181.5,197.5 L181.5,242.5 L160.5,242.5 L160.5,197.5 L181.5,197.5 Z" id="Rectangle" fill-rule="nonzero"></path>
                <path d="M165.5,183.5 L176.5,183.5 L176.5,148.5 L165.5,148.5 L165.5,183.5 Z M181.5,143.5 L181.5,188.5 L160.5,188.5 L160.5,143.5 L181.5,143.5 Z" id="Rectangle" fill-rule="nonzero"></path>
                <path d="M165.5,131.5 L176.5,131.5 L176.5,96.5 L165.5,96.5 L165.5,131.5 Z M181.5,91.5 L181.5,136.5 L160.5,136.5 L160.5,91.5 L181.5,91.5 Z" id="Rectangle" fill-rule="nonzero"></path>
                <path d="M165.5,42.5 L165.5,77.5 L176.5,77.5 L176.5,42.5 L165.5,42.5 Z M181.5,37.5 L181.5,82.5 L160.5,82.5 L160.5,37.5 L181.5,37.5 Z" id="Rectangle" fill-rule="nonzero"></path>
            </g>
            <g id="WS2811" fill-opacity="1">
                <use filter="url(#filter-2)" xlink:href="#text-1"></use>
                <use xlink:href="#text-1"></use>
            </g>
        </g>
    </g>
</svg>